<svg width="918" height="280" viewBox="0 0 918 280" fill="none" xmlns="http://www.w3.org/2000/svg">
<g clip-path="url(#clip0_2051_131)">
<path d="M892.174 86.1539V88.4133H885.038V107.692H882.105V88.4133H874.969V86.1539H892.174Z" fill="#016DD3"/>
<path d="M894.218 107.692V86.1539H897.94L906.267 104.123L914.436 86.1539H918V107.692H915.382V90.025L907.328 107.692H905.012L896.829 90.025V107.692H894.218Z" fill="#016DD3"/>
<path d="M159.311 133.139C159.311 182.725 181.682 207.517 226.424 207.517C270.225 207.517 292.126 182.725 292.126 133.139C292.126 84.2391 270.225 59.7889 226.424 59.7889C181.682 59.7889 159.311 84.2391 159.311 133.139ZM134.288 133.91C134.288 71.65 165 40.5199 226.424 40.5199C286.907 40.5199 317.149 71.65 317.149 133.91C317.149 195.828 286.907 226.786 226.424 226.786C165 226.786 134.288 195.828 134.288 133.91Z" fill="#016DD3"/>
<path d="M340.098 225.502V90.6195H356.139L360.373 107.833C372.179 96.3574 386.38 90.6195 402.977 90.6195V110.402C386.893 110.402 373.848 116.097 363.838 127.487V225.502H340.098Z" fill="#016DD3"/>
<path d="M441.325 90.6195V225.502H417.585V90.6195H441.325ZM441.325 41.8045V64.285H417.585V41.8045H441.325Z" fill="#016DD3"/>
<path d="M560.774 113.485C552.647 111.43 542.595 110.402 530.618 110.402C501.959 110.402 487.629 125.945 487.629 157.033C487.629 188.976 501.189 204.949 528.308 204.949C540.627 204.949 551.449 202.636 560.774 198.012V113.485ZM584.514 225.502C584.514 258.045 563.854 274.317 522.534 274.317C505.937 274.317 491.222 272.176 478.39 267.894V248.625C491.479 252.907 506.279 255.048 522.79 255.048C548.113 255.048 560.774 245.199 560.774 225.502V219.079C550.679 223.361 539.814 225.502 528.18 225.502C485.576 225.502 464.274 202.765 464.274 157.29C464.274 112.843 486.731 90.6195 531.645 90.6195C549.866 90.6195 567.49 92.4603 584.514 96.1427V225.502Z" fill="#016DD3"/>
<path d="M666.877 90.6195C705.203 90.6195 724.367 109.588 724.367 147.527C724.367 152.922 723.979 158.703 723.212 164.869H628.636C628.636 192.445 644.719 206.233 676.886 206.233C692.199 206.233 705.801 204.521 717.69 201.095V220.364C705.801 223.789 691.344 225.502 674.32 225.502C628.038 225.502 604.897 202.508 604.897 156.519C604.897 112.586 625.557 90.6195 666.877 90.6195ZM628.636 145.086H701.524C701.011 121.45 689.462 109.632 666.877 109.632C642.923 109.632 630.176 121.45 628.636 145.086Z" fill="#016DD3"/>
<path d="M744.491 225.502V90.6195H760.534L764.766 107.833C778.543 96.3574 793.683 90.6195 810.193 90.6195C843.814 90.6195 860.625 107.362 860.625 140.847V225.502H836.886V140.462C836.886 120.422 826.917 110.402 806.987 110.402C793.382 110.402 780.465 116.097 768.23 127.487V225.502H744.491Z" fill="#016DD3"/>
<path d="M0 18.7918C0 8.41342 8.40451 0 18.7719 0H81.3448C91.7125 0 100.117 8.41342 100.117 18.7918V81.4312C100.117 91.8098 91.7125 100.223 81.3448 100.223H18.7719C8.40451 100.223 0 91.8098 0 81.4312V18.7918Z" fill="#016DD3"/>
</g>
<defs>
<clipPath id="clip0_2051_131">
<rect width="918" height="280" fill="white"/>
</clipPath>
</defs>
</svg>
